<svg width="412" height="330" viewBox="0 0 412 330" fill="none" xmlns="http://www.w3.org/2000/svg">
<path fill-rule="evenodd" clip-rule="evenodd" d="M43.3071 25.9843H368.11C377.677 25.9843 385.433 33.74 385.433 43.3071V78.8189H25.9843V43.3071C25.9843 33.74 33.74 25.9843 43.3071 25.9843ZM25.9843 104.803V286.693C25.9843 296.26 33.74 304.016 43.3071 304.016H368.11C377.677 304.016 385.433 296.26 385.433 286.693V104.803H25.9843ZM0 43.3071C0 19.3893 19.3892 0 43.3071 0H368.11C392.028 0 411.417 19.3892 411.417 43.3071V286.693C411.417 310.611 392.028 330 368.11 330H43.3071C19.3893 330 0 310.611 0 286.693V43.3071Z" fill="url(#paint0_linear)"/>
<circle cx="71.4566" cy="51.5357" r="11.6929" fill="#F9953C"/>
<circle cx="108.701" cy="51.5347" r="11.6929" fill="#F9953C"/>
<circle cx="145.945" cy="51.5347" r="11.6929" fill="#F9953C"/>
<path fill-rule="evenodd" clip-rule="evenodd" d="M220.33 137.077C227.21 139.115 231.135 146.345 229.096 153.224L194.903 268.626C192.865 275.505 185.635 279.43 178.755 277.392C171.876 275.353 167.951 268.124 169.99 261.244L204.183 145.843C206.221 138.963 213.451 135.038 220.33 137.077Z" fill="url(#paint1_linear)"/>
<path fill-rule="evenodd" clip-rule="evenodd" d="M130.773 147.725C135.822 152.774 135.822 160.961 130.773 166.01L92.7822 204.001L92.7829 204.001L92.7824 204.002L130.73 241.95C135.779 246.999 135.779 255.185 130.73 260.234C125.681 265.283 117.495 265.283 112.446 260.234L66.0865 213.875C65.8261 213.653 65.5724 213.419 65.3261 213.172C64.1123 211.959 63.1902 210.563 62.56 209.074C60.5126 204.348 61.4202 198.65 65.2829 194.787C65.6735 194.396 66.0829 194.036 66.5081 193.706L112.489 147.725C117.538 142.676 125.724 142.676 130.773 147.725Z" fill="url(#paint2_linear)"/>
<path fill-rule="evenodd" clip-rule="evenodd" d="M266.227 147.566C261.178 152.615 261.178 160.802 266.227 165.851L304.218 203.842L304.218 203.842L266.27 241.79C261.221 246.84 261.221 255.026 266.27 260.075C271.319 265.124 279.505 265.124 284.554 260.075L330.913 213.716L330.913 213.716C331.174 213.494 331.428 213.259 331.674 213.013C332.888 211.799 333.81 210.403 334.44 208.914C336.487 204.188 335.579 198.49 331.717 194.628C331.326 194.237 330.917 193.877 330.492 193.547L284.511 147.566C279.462 142.517 271.276 142.517 266.227 147.566Z" fill="url(#paint3_linear)"/>
<defs>
<linearGradient id="paint0_linear" x1="26.4775" y1="349.209" x2="20.1898" y2="1.04082" gradientUnits="userSpaceOnUse">
<stop stop-color="#EF4635"/>
<stop offset="1" stop-color="#FF9D26"/>
</linearGradient>
<linearGradient id="paint1_linear" x1="233.117" y1="272.539" x2="272.786" y2="154.222" gradientUnits="userSpaceOnUse">
<stop stop-color="#EF4635"/>
<stop offset="1" stop-color="#FF9D26"/>
</linearGradient>
<linearGradient id="paint2_linear" x1="66.1983" y1="271.011" x2="61.515" y2="144.449" gradientUnits="userSpaceOnUse">
<stop stop-color="#EF4635"/>
<stop offset="1" stop-color="#FF9D26"/>
</linearGradient>
<linearGradient id="paint3_linear" x1="330.802" y1="270.852" x2="335.485" y2="144.29" gradientUnits="userSpaceOnUse">
<stop stop-color="#EF4635"/>
<stop offset="1" stop-color="#FF9D26"/>
</linearGradient>
</defs>
</svg>
